<?xml version="1.0" encoding="UTF-8" standalone="no"?>
<!DOCTYPE svg PUBLIC "-//W3C//DTD SVG 1.1//EN"
 "http://www.w3.org/Graphics/SVG/1.1/DTD/svg11.dtd">
<!-- Generated by graphviz version 2.40.1 (20161225.0304)
 -->
<!-- Title: G Pages: 1 -->
<svg width="440pt" height="412pt"
 viewBox="0.00 0.00 440.49 412.00" xmlns="http://www.w3.org/2000/svg" xmlns:xlink="http://www.w3.org/1999/xlink">
<g id="graph0" class="graph" transform="scale(1 1) rotate(0) translate(4 408)">
<title>G</title>
<polygon fill="#ffffff" stroke="transparent" points="-4,4 -4,-408 436.489,-408 436.489,4 -4,4"/>
<g id="clust1" class="cluster">
<title>cluster_0</title>
<polygon fill="none" stroke="#000000" points="80.489,-246 80.489,-396 186.489,-396 186.489,-246 80.489,-246"/>
<text text-anchor="middle" x="133.489" y="-380.8" font-family="Times,serif" font-size="14.00" fill="#000000">Inputs</text>
</g>
<g id="clust2" class="cluster">
<title>cluster_1</title>
<polygon fill="none" stroke="#000000" points="210.489,-246 210.489,-321 424.489,-321 424.489,-246 210.489,-246"/>
<text text-anchor="middle" x="317.489" y="-305.8" font-family="Times,serif" font-size="14.00" fill="#000000">Layer 1</text>
</g>
<g id="clust3" class="cluster">
<title>cluster_2</title>
<polygon fill="none" stroke="#000000" points="184.489,-91 184.489,-238 255.489,-238 255.489,-91 184.489,-91"/>
<text text-anchor="middle" x="219.989" y="-222.8" font-family="Times,serif" font-size="14.00" fill="#000000">Layer 2</text>
</g>
<g id="clust4" class="cluster">
<title>cluster_3</title>
<polygon fill="none" stroke="#000000" points="71.489,-8 71.489,-83 177.489,-83 177.489,-8 71.489,-8"/>
<text text-anchor="middle" x="124.489" y="-67.8" font-family="Times,serif" font-size="14.00" fill="#000000">Outputs</text>
</g>
<!-- i1 -->
<g id="node1" class="node">
<title>i1</title>
<polygon fill="none" stroke="#000000" points="124.489,-365 88.489,-365 88.489,-329 124.489,-329 124.489,-365"/>
<text text-anchor="middle" x="106.489" y="-343.3" font-family="Times,serif" font-size="14.00" fill="#000000">i1</text>
</g>
<!-- i3 -->
<g id="node3" class="node">
<title>i3</title>
<polygon fill="none" stroke="#000000" points="124.489,-290 88.489,-290 88.489,-254 124.489,-254 124.489,-290"/>
<text text-anchor="middle" x="106.489" y="-268.3" font-family="Times,serif" font-size="14.00" fill="#000000">i3</text>
</g>
<!-- i1&#45;&gt;i3 -->
<g id="edge5" class="edge">
<title>i1&#45;&gt;i3</title>
<path fill="none" stroke="#0000ff" d="M106.489,-328.8446C106.489,-320.3401 106.489,-310.0076 106.489,-300.4964"/>
<polygon fill="#0000ff" stroke="#0000ff" points="109.9891,-300.2481 106.489,-290.2482 102.9891,-300.2482 109.9891,-300.2481"/>
</g>
<!-- b2 -->
<g id="node8" class="node">
<title>b2</title>
<ellipse fill="none" stroke="#000000" cx="220.489" cy="-189" rx="27" ry="18"/>
<text text-anchor="middle" x="220.489" y="-185.3" font-family="Times,serif" font-size="14.00" fill="#000000">b2</text>
</g>
<!-- i1&#45;&gt;b2 -->
<g id="edge4" class="edge">
<title>i1&#45;&gt;b2</title>
<path fill="none" stroke="#0000ff" d="M124.6881,-331.3996C127.8639,-328.164 130.9562,-324.6286 133.489,-321 154.3329,-291.1378 142.563,-273.4549 166.489,-246 170.9461,-240.8855 174.3568,-242.4368 179.489,-238 187.7962,-230.8184 195.8099,-221.8632 202.5148,-213.5804"/>
<polygon fill="#0000ff" stroke="#0000ff" points="205.3429,-215.6456 208.7458,-205.6121 199.8286,-211.3336 205.3429,-215.6456"/>
</g>
<!-- o1 -->
<g id="node9" class="node">
<title>o1</title>
<polygon fill="none" stroke="#000000" points="115.489,-52 79.489,-52 79.489,-16 115.489,-16 115.489,-52"/>
<text text-anchor="middle" x="97.489" y="-30.3" font-family="Times,serif" font-size="14.00" fill="#000000">o1</text>
</g>
<!-- i1&#45;&gt;o1 -->
<g id="edge1" class="edge">
<title>i1&#45;&gt;o1</title>
<path fill="none" stroke="#0000ff" d="M88.4739,-342.6845C70.0992,-337.8751 43.4612,-329.6326 37.489,-321 -20.6696,-236.9348 -2.837,-184.9319 37.489,-91 44.4168,-74.8629 58.4067,-61.1416 71.1358,-51.2077"/>
<polygon fill="#0000ff" stroke="#0000ff" points="73.2594,-53.9905 79.2317,-45.2394 69.1057,-48.3561 73.2594,-53.9905"/>
</g>
<!-- o2 -->
<g id="node10" class="node">
<title>o2</title>
<polygon fill="none" stroke="#000000" points="169.489,-52 133.489,-52 133.489,-16 169.489,-16 169.489,-52"/>
<text text-anchor="middle" x="151.489" y="-30.3" font-family="Times,serif" font-size="14.00" fill="#000000">o2</text>
</g>
<!-- i1&#45;&gt;o2 -->
<g id="edge6" class="edge">
<title>i1&#45;&gt;o2</title>
<path fill="none" stroke="#ff0000" d="M88.3625,-333.5449C84.7581,-329.9092 81.4756,-325.671 79.489,-321 66.4429,-290.3257 74.4058,-278.9435 79.489,-246 90.0901,-177.296 121.019,-101.119 138.6995,-61.4416"/>
<polygon fill="#ff0000" stroke="#ff0000" points="141.9618,-62.7216 142.8886,-52.1673 135.5824,-59.84 141.9618,-62.7216"/>
</g>
<!-- i2 -->
<g id="node2" class="node">
<title>i2</title>
<polygon fill="none" stroke="#000000" points="178.489,-365 142.489,-365 142.489,-329 178.489,-329 178.489,-365"/>
<text text-anchor="middle" x="160.489" y="-343.3" font-family="Times,serif" font-size="14.00" fill="#000000">i2</text>
</g>
<!-- i2&#45;&gt;i3 -->
<g id="edge10" class="edge">
<title>i2&#45;&gt;i3</title>
<path fill="none" stroke="#0000ff" d="M147.4171,-328.8446C140.8329,-319.6999 132.7271,-308.4418 125.4709,-298.3638"/>
<polygon fill="#0000ff" stroke="#0000ff" points="128.3111,-296.3184 119.6277,-290.2482 122.6304,-300.4086 128.3111,-296.3184"/>
</g>
<!-- a1 -->
<g id="node4" class="node">
<title>a1</title>
<ellipse fill="none" stroke="#000000" cx="389.489" cy="-272" rx="27" ry="18"/>
<text text-anchor="middle" x="389.489" y="-268.3" font-family="Times,serif" font-size="14.00" fill="#000000">a1</text>
</g>
<!-- i2&#45;&gt;a1 -->
<g id="edge2" class="edge">
<title>i2&#45;&gt;a1</title>
<path fill="none" stroke="#ff0000" d="M178.7085,-346.3435C220.9342,-344.5396 324.1221,-338.4257 353.489,-321 362.6523,-315.5627 370.1863,-306.7955 375.9512,-298.1695"/>
<polygon fill="#ff0000" stroke="#ff0000" points="379.0947,-299.737 381.3127,-289.3769 373.1182,-296.0927 379.0947,-299.737"/>
</g>
<!-- a2 -->
<g id="node5" class="node">
<title>a2</title>
<ellipse fill="none" stroke="#000000" cx="245.489" cy="-272" rx="27" ry="18"/>
<text text-anchor="middle" x="245.489" y="-268.3" font-family="Times,serif" font-size="14.00" fill="#000000">a2</text>
</g>
<!-- i2&#45;&gt;a2 -->
<g id="edge7" class="edge">
<title>i2&#45;&gt;a2</title>
<path fill="none" stroke="#0000ff" d="M178.5338,-338.1537C186.8728,-333.624 196.6426,-327.6611 204.489,-321 212.8603,-313.8932 220.8886,-304.955 227.5871,-296.6648"/>
<polygon fill="#0000ff" stroke="#0000ff" points="230.4212,-298.722 233.8059,-288.6824 224.8992,-294.42 230.4212,-298.722"/>
</g>
<!-- a3 -->
<g id="node6" class="node">
<title>a3</title>
<ellipse fill="none" stroke="#000000" cx="317.489" cy="-272" rx="27" ry="18"/>
<text text-anchor="middle" x="317.489" y="-268.3" font-family="Times,serif" font-size="14.00" fill="#000000">a3</text>
</g>
<!-- i2&#45;&gt;a3 -->
<g id="edge9" class="edge">
<title>i2&#45;&gt;a3</title>
<path fill="none" stroke="#ff0000" d="M178.9194,-344.6665C208.4398,-340.6628 264.7135,-331.8572 281.489,-321 290.3025,-315.2958 297.7013,-306.6284 303.4545,-298.161"/>
<polygon fill="#ff0000" stroke="#ff0000" points="306.5097,-299.8765 308.8446,-289.5421 300.5747,-296.1649 306.5097,-299.8765"/>
</g>
<!-- i2&#45;&gt;b2 -->
<g id="edge8" class="edge">
<title>i2&#45;&gt;b2</title>
<path fill="none" stroke="#ff0000" d="M167.3717,-328.8754C177.8153,-301.3741 197.7425,-248.8991 209.9985,-216.6248"/>
<polygon fill="#ff0000" stroke="#ff0000" points="213.4083,-217.5044 213.6865,-206.9132 206.8643,-215.0193 213.4083,-217.5044"/>
</g>
<!-- b1 -->
<g id="node7" class="node">
<title>b1</title>
<ellipse fill="none" stroke="#000000" cx="220.489" cy="-117" rx="27" ry="18"/>
<text text-anchor="middle" x="220.489" y="-113.3" font-family="Times,serif" font-size="14.00" fill="#000000">b1</text>
</g>
<!-- i3&#45;&gt;b1 -->
<g id="edge11" class="edge">
<title>i3&#45;&gt;b1</title>
<path fill="none" stroke="#0000ff" d="M121.4989,-253.795C124.0529,-251.0678 126.764,-248.3769 129.489,-246 134.3195,-241.7866 136.9962,-242.5718 141.489,-238 166.2896,-212.7635 165.1192,-200.6102 184.489,-171 190.6879,-161.5238 197.568,-151.1655 203.639,-142.0782"/>
<polygon fill="#0000ff" stroke="#0000ff" points="206.7308,-143.7513 209.3851,-133.4943 200.9138,-139.8573 206.7308,-143.7513"/>
</g>
<!-- i3&#45;&gt;b2 -->
<g id="edge12" class="edge">
<title>i3&#45;&gt;b2</title>
<path fill="none" stroke="#0000ff" d="M124.7379,-254.6645C128.9928,-251.3636 133.6909,-248.2443 138.489,-246 155.3061,-238.1339 163.502,-247.4397 179.489,-238 189.3328,-232.1876 197.8958,-223.1134 204.6138,-214.3458"/>
<polygon fill="#0000ff" stroke="#0000ff" points="207.504,-216.3211 210.471,-206.1502 201.8089,-212.251 207.504,-216.3211"/>
</g>
<!-- i3&#45;&gt;o1 -->
<g id="edge3" class="edge">
<title>i3&#45;&gt;o1</title>
<path fill="none" stroke="#ff0000" d="M105.7977,-253.7197C104.2364,-212.432 100.4282,-111.7265 98.5593,-62.3027"/>
<polygon fill="#ff0000" stroke="#ff0000" points="102.0458,-61.8773 98.1703,-52.0168 95.0508,-62.1419 102.0458,-61.8773"/>
</g>
<!-- i3&#45;&gt;o2 -->
<g id="edge13" class="edge">
<title>i3&#45;&gt;o2</title>
<path fill="none" stroke="#ff0000" d="M110.3306,-253.6616C111.3746,-248.5919 112.4918,-243.086 113.489,-238 125.8064,-175.1756 139.3341,-101.2712 146.4565,-61.9428"/>
<polygon fill="#ff0000" stroke="#ff0000" points="149.9132,-62.4957 148.2481,-52.0325 143.0248,-61.2503 149.9132,-62.4957"/>
</g>
<!-- a1&#45;&gt;b1 -->
<g id="edge15" class="edge">
<title>a1&#45;&gt;b1</title>
<path fill="none" stroke="#ff0000" d="M375.1541,-256.3362C356.2339,-235.9447 321.5629,-199.5428 289.489,-171 275.9726,-158.9717 260.1207,-146.4633 247.0214,-136.5175"/>
<polygon fill="#ff0000" stroke="#ff0000" points="248.9591,-133.5954 238.8631,-130.3826 244.752,-139.1901 248.9591,-133.5954"/>
</g>
<!-- a1&#45;&gt;o1 -->
<g id="edge14" class="edge">
<title>a1&#45;&gt;o1</title>
<path fill="none" stroke="#ff0000" d="M383.5307,-254.163C369.3802,-215.1817 329.5872,-123.3054 259.489,-91 232.1954,-78.4215 149.9003,-99.0444 124.489,-83 116.493,-77.9514 110.6737,-69.6557 106.5321,-61.313"/>
<polygon fill="#ff0000" stroke="#ff0000" points="109.711,-59.8455 102.5422,-52.0443 103.2814,-62.6133 109.711,-59.8455"/>
</g>
<!-- a2&#45;&gt;b2 -->
<g id="edge17" class="edge">
<title>a2&#45;&gt;b2</title>
<path fill="none" stroke="#0000ff" d="M240.0644,-253.9902C236.7659,-243.0393 232.4873,-228.8344 228.7718,-216.4991"/>
<polygon fill="#0000ff" stroke="#0000ff" points="232.0525,-215.2551 225.8171,-206.6895 225.35,-217.274 232.0525,-215.2551"/>
</g>
<!-- a2&#45;&gt;o2 -->
<g id="edge16" class="edge">
<title>a2&#45;&gt;o2</title>
<path fill="none" stroke="#ff0000" d="M254.1082,-254.7614C256.3127,-249.5115 258.374,-243.636 259.489,-238 272.1678,-173.9087 293.2241,-146.9499 259.489,-91 242.2662,-62.4359 205.4236,-47.4527 179.5804,-40.1459"/>
<polygon fill="#ff0000" stroke="#ff0000" points="180.1643,-36.6813 169.605,-37.5475 178.3998,-43.4553 180.1643,-36.6813"/>
</g>
<!-- a3&#45;&gt;b1 -->
<g id="edge18" class="edge">
<title>a3&#45;&gt;b1</title>
<path fill="none" stroke="#0000ff" d="M307.5711,-255.0603C295.6848,-234.8813 275.044,-200.2265 256.489,-171 250.4197,-161.4402 243.5676,-151.064 237.4826,-141.9857"/>
<polygon fill="#0000ff" stroke="#0000ff" points="240.2008,-139.7562 231.7107,-133.4184 234.3954,-143.6674 240.2008,-139.7562"/>
</g>
<!-- b1&#45;&gt;o2 -->
<g id="edge19" class="edge">
<title>b1&#45;&gt;o2</title>
<path fill="none" stroke="#ff0000" d="M207.1851,-100.9968C197.5857,-89.4496 184.4117,-73.6027 173.2862,-60.2199"/>
<polygon fill="#ff0000" stroke="#ff0000" points="175.7582,-57.7184 166.674,-52.2661 170.3753,-62.1933 175.7582,-57.7184"/>
</g>
<!-- b2&#45;&gt;b1 -->
<g id="edge21" class="edge">
<title>b2&#45;&gt;b1</title>
<path fill="none" stroke="#0000ff" d="M220.489,-170.8314C220.489,-163.131 220.489,-153.9743 220.489,-145.4166"/>
<polygon fill="#0000ff" stroke="#0000ff" points="223.9891,-145.4132 220.489,-135.4133 216.9891,-145.4133 223.9891,-145.4132"/>
</g>
<!-- b2&#45;&gt;o2 -->
<g id="edge20" class="edge">
<title>b2&#45;&gt;o2</title>
<path fill="none" stroke="#0000ff" d="M207.9038,-172.6828C200.352,-162.3188 190.9836,-148.3799 184.489,-135 172.9809,-111.2915 164.04,-82.59 158.3849,-61.8519"/>
<polygon fill="#0000ff" stroke="#0000ff" points="161.7427,-60.8588 155.8035,-52.0852 154.9751,-62.6476 161.7427,-60.8588"/>
</g>
</g>
</svg>
